<?xml version="1.0" encoding="UTF-8"?>
<svg version="1.1" xmlns="http://www.w3.org/2000/svg" width="254" height="82">
<path d="M0 0 C0.66 0 1.32 0 2 0 C2.99 1.0209375 2.99 1.0209375 4 2.0625 C14.79600138 13.10668532 30.58406509 19.19468836 45 24 C45 24.66 45 25.32 45 26 C45.721875 26.12375 46.44375 26.2475 47.1875 26.375 C49.95721894 26.9904931 52.3970354 27.88444374 55 29 C55 28.34 55 27.68 55 27 C57.64 26.34 60.28 25.68 63 25 C63 24.34 63 23.68 63 23 C65.39652528 22.91860858 67.79025436 22.85932991 70.1875 22.8125 C70.86103516 22.78736328 71.53457031 22.76222656 72.22851562 22.73632812 C76.65806882 22.6715054 79.55627255 23.1313416 83 26 C83 26.99 83 27.98 83 29 C85.31 29.33 87.62 29.66 90 30 C90.495 31.485 90.495 31.485 91 33 C90.34773438 33.03738281 89.69546875 33.07476562 89.0234375 33.11328125 C83.70930305 33.51301703 79.58277234 34.05393207 75 37 C74.175 37.495 73.35 37.99 72.5 38.5 C70.22105661 42.29823899 71.5089111 45.37374408 72.51953125 49.5390625 C73 52 73 52 72 54 C71.84655791 55.88472859 71.75040429 57.77427874 71.68359375 59.6640625 C71.64169922 60.78554688 71.59980469 61.90703125 71.55664062 63.0625 C71.51732422 64.238125 71.47800781 65.41375 71.4375 66.625 C71.39431641 67.80835937 71.35113281 68.99171875 71.30664062 70.2109375 C71.20032574 73.14050328 71.09829358 76.07015588 71 79 C68.69 79 66.38 79 64 79 C64 74.38 64 69.76 64 65 C60.04 65 56.08 65 52 65 C52 69.62 52 74.24 52 79 C49.36 79 46.72 79 44 79 C44 67.45 44 55.9 44 44 C46.64 44 49.28 44 52 44 C52 48.62 52 53.24 52 58 C55.96 58 59.92 58 64 58 C64 54.04 64 50.08 64 46 C59.97709442 43.98854721 57.83254238 43.67250227 53.4375 43.4375 C50.0056926 43.24662762 47.26512402 43.08837467 44 42 C44 41.34 44 40.68 44 40 C42.81664062 40.05800781 41.63328125 40.11601563 40.4140625 40.17578125 C31.16033822 40.48886983 23.88368517 40.54631117 16 35 C16 34.34 16 33.68 16 33 C16.99 32.505 16.99 32.505 18 32 C17.32453125 31.73445313 16.6490625 31.46890625 15.953125 31.1953125 C15.06109375 30.84210937 14.1690625 30.48890625 13.25 30.125 C12.36828125 29.77695312 11.4865625 29.42890625 10.578125 29.0703125 C4.20143885 26.42302158 4.20143885 26.42302158 2.75 23.375 C2.5025 22.59125 2.255 21.8075 2 21 C4.64 21.33 7.28 21.66 10 22 C9.48050781 21.76925781 8.96101563 21.53851562 8.42578125 21.30078125 C2.57403515 18.56419758 -2.66427466 15.37016002 -5 9 C-5 8.01 -5 7.02 -5 6 C-1.42597488 7.30710813 1.50997433 8.88412294 4.625 11.0625 C7.17156156 12.83987829 9.03197816 14.01065939 12 15 C11.07767578 14.34644531 11.07767578 14.34644531 10.13671875 13.6796875 C5.48585578 10.25273584 1.96876422 7.64379078 0 2 C0 1.34 0 0.68 0 0 Z M23 33 C23 33.33 23 33.66 23 34 C25.64 34 28.28 34 31 34 C31 33.67 31 33.34 31 33 C28.36 33 25.72 33 23 33 Z " fill="#F04650" transform="translate(12,1)"/>
<path d="M0 0 C2.64 0 5.28 0 8 0 C8 4.62 8 9.24 8 14 C11.96 14 15.92 14 20 14 C20 10.04 20 6.08 20 2 C26.71971067 8.71971067 26.71971067 8.71971067 27.34057617 13.77075195 C27.32486572 14.75003662 27.30915527 15.72932129 27.29296875 16.73828125 C27.28330078 17.80498047 27.27363281 18.87167969 27.26367188 19.97070312 C27.23853516 21.07349609 27.21339844 22.17628906 27.1875 23.3125 C27.16719727 24.99569336 27.16719727 24.99569336 27.14648438 26.71289062 C27.1112138 29.47575229 27.06192235 32.23762829 27 35 C24.69 35 22.38 35 20 35 C20 30.38 20 25.76 20 21 C16.04 21 12.08 21 8 21 C8 25.62 8 30.24 8 35 C5.36 35 2.72 35 0 35 C0 23.45 0 11.9 0 0 Z " fill="#3B3839" transform="translate(56,45)"/>
<path d="M0 0 C0.66 0 1.32 0 2 0 C2.99 1.0209375 2.99 1.0209375 4 2.0625 C14.17731733 12.47377865 28.54333803 18.10117025 42 23 C39 25 39 25 37 25 C37 24.34 37 23.68 37 23 C36.360625 23.185625 35.72125 23.37125 35.0625 23.5625 C34.381875 23.706875 33.70125 23.85125 33 24 C32.67 23.67 32.34 23.34 32 23 C29.46326712 24.3553326 29.46326712 24.3553326 27 26 C27 26.66 27 27.32 27 28 C27.51304688 27.81824219 28.02609375 27.63648437 28.5546875 27.44921875 C31.89997791 26.8346686 34.76590329 27.3251154 38.125 27.8125 C39.36507812 27.98394531 40.60515625 28.15539062 41.8828125 28.33203125 C45 29 45 29 47 31 C41.39 30.67 35.78 30.34 30 30 C30.495 31.485 30.495 31.485 31 33 C21.84249463 33.73260043 11.5453508 31.35829259 4 26 C2.6875 23.3125 2.6875 23.3125 2 21 C4.64 21.33 7.28 21.66 10 22 C9.48050781 21.76925781 8.96101563 21.53851562 8.42578125 21.30078125 C2.57403515 18.56419758 -2.66427466 15.37016002 -5 9 C-5 8.01 -5 7.02 -5 6 C-1.42597488 7.30710813 1.50997433 8.88412294 4.625 11.0625 C7.17156156 12.83987829 9.03197816 14.01065939 12 15 C11.07767578 14.34644531 11.07767578 14.34644531 10.13671875 13.6796875 C5.48585578 10.25273584 1.96876422 7.64379078 0 2 C0 1.34 0 0.68 0 0 Z " fill="#F2636B" transform="translate(12,1)"/>
<path d="M0 0 C3.24006063 1.35002526 4.51973759 2.19956265 6.3125 5.1875 C6.539375 5.785625 6.76625 6.38375 7 7 C3.58215962 9.07511737 3.58215962 9.07511737 1.0625 8.75 C-0.50088276 8.18149718 -2.03929069 7.54372604 -3.5625 6.875 C-6.08657081 5.68543553 -6.08657081 5.68543553 -9 7 C-9 8.32 -9 9.64 -9 11 C-8.09636719 11.31453125 -7.19273438 11.6290625 -6.26171875 11.953125 C-5.08222656 12.38109375 -3.90273437 12.8090625 -2.6875 13.25 C-0.92986328 13.87648438 -0.92986328 13.87648438 0.86328125 14.515625 C4.07094039 16.0335708 5.2919505 16.95241854 7 20 C8.20068781 24.24243027 8.35850539 26.94603312 6.3125 30.8125 C4.06707416 33.90754643 3.38859673 34.70706345 0 36 C-4.98860331 36.7079536 -8.93998587 36.51107824 -13.5 34.3125 C-16.07068171 31.93461942 -17.0717492 30.34170288 -18 27 C-15.69 26.34 -13.38 25.68 -11 25 C-10.46375 25.680625 -9.9275 26.36125 -9.375 27.0625 C-7.08837848 29.38259327 -7.08837848 29.38259327 -3.75 28.75 C-2.8425 28.5025 -1.935 28.255 -1 28 C-0.67 27.01 -0.34 26.02 0 25 C-1.87052129 21.25895742 -7.1156977 20.7141172 -10.8984375 19.4140625 C-14.11907879 17.94570967 -15.34716479 17.0802838 -17 14 C-17.64221857 8.94252874 -17.64221857 8.94252874 -17 6 C-11.93493782 -0.26468216 -7.68827011 -0.67802067 0 0 Z " fill="#3E3A3B" transform="translate(107,45)"/>
<path d="M0 0 C8.58 0 17.16 0 26 0 C26 2.31 26 4.62 26 7 C23.03 7 20.06 7 17 7 C17 16.24 17 25.48 17 35 C13 36 13 36 9 35 C9 25.76 9 16.52 9 7 C6.03 7 3.06 7 0 7 C0 4.69 0 2.38 0 0 Z " fill="#434041" transform="translate(25,45)"/>
<path d="M0 0 C2.39652528 -0.08139142 4.79025436 -0.14067009 7.1875 -0.1875 C7.86103516 -0.21263672 8.53457031 -0.23777344 9.22851562 -0.26367188 C13.65806882 -0.3284946 16.55627255 0.1313416 20 3 C20 3.99 20 4.98 20 6 C22.31 6.33 24.62 6.66 27 7 C27.495 8.485 27.495 8.485 28 10 C27.34773438 10.03738281 26.69546875 10.07476562 26.0234375 10.11328125 C19.71383127 10.58789765 14.66079676 11.33920324 10 16 C6.41825187 15.69532848 4.64266661 13.99422217 2.125 11.5625 C-1.08733372 8.62688417 -3.6723679 6.97371722 -8 6 C-8 5.34 -8 4.68 -8 4 C-5.36 3.34 -2.72 2.68 0 2 C0 1.34 0 0.68 0 0 Z " fill="#3D393A" transform="translate(75,24)"/>
<path d="M0 0 C2.31 0 4.62 0 7 0 C7.19890186 4.14536741 7.38203636 8.29129222 7.5625 12.4375 C7.61857422 13.60216797 7.67464844 14.76683594 7.73242188 15.96679688 C8.0065905 22.45545438 7.92846759 28.56950225 7 35 C4.69 35 2.38 35 0 35 C0 23.45 0 11.9 0 0 Z " fill="#383435" transform="translate(12,45)"/>
<path d="M0 0 C0.66 0 1.32 0 2 0 C2.99 1.0209375 2.99 1.0209375 4 2.0625 C14.17731733 12.47377865 28.54333803 18.10117025 42 23 C39 25 39 25 37 25 C37 24.34 37 23.68 37 23 C36.13375 23.3403125 36.13375 23.3403125 35.25 23.6875 C34.5075 23.790625 33.765 23.89375 33 24 C32.16082031 23.33677734 32.16082031 23.33677734 31.3046875 22.66015625 C28.31905576 20.50948932 25.40259122 19.77857896 21.875 18.75 C13.61874295 16.18221174 5.87283215 12.46571531 1 5 C0.3125 2.25 0.3125 2.25 0 0 Z " fill="#434041" transform="translate(12,1)"/>
<path d="M0 0 C8.39001357 1.29523251 16.08853669 4.0132516 24 7 C23.01 7.495 23.01 7.495 22 8 C22 8.66 22 9.32 22 10 C13.85776188 10.5169675 7.81475539 9.16345569 1.4375 3.875 C0 2 0 2 0 0 Z " fill="#F25B63" transform="translate(14,22)"/>
<path d="M0 0 C4.71727177 0.67257976 8.70039208 2.48998387 13 4.4375 C14.39552721 5.06188256 15.79135382 5.68559645 17.1875 6.30859375 C17.84105469 6.6010498 18.49460937 6.89350586 19.16796875 7.19482422 C21.42373478 8.18623098 23.70348932 9.10741089 26 10 C23 12 23 12 21 12 C21 11.34 21 10.68 21 10 C20.13375 10.3403125 20.13375 10.3403125 19.25 10.6875 C18.5075 10.790625 17.765 10.89375 17 11 C16.4534375 10.566875 15.906875 10.13375 15.34375 9.6875 C12.2319238 7.44698514 8.86850118 6.44456417 5.25 5.3125 C4.55261719 5.08755859 3.85523438 4.86261719 3.13671875 4.63085938 C1.42667656 4.08036634 -0.28637529 3.53923763 -2 3 C-1.34 2.67 -0.68 2.34 0 2 C0 1.34 0 0.68 0 0 Z " fill="#5D5B5B" transform="translate(28,14)"/>
<path d="M0 0 C6.45352025 0.52044518 13.06285897 1.24347024 19 4 C19.33 4.99 19.66 5.98 20 7 C17.26967727 6.71703381 14.54107852 6.42396118 11.8125 6.125 C11.04357422 6.04636719 10.27464844 5.96773437 9.48242188 5.88671875 C5.34219296 5.42471896 1.80766499 4.8160807 -2 3 C-1.34 2.01 -0.68 1.02 0 0 Z " fill="#EE2531" transform="translate(40,24)"/>
<path d="M0 0 C1.32 0.99 2.64 1.98 4 3 C4 3.66 4 4.32 4 5 C4.78375 4.175 5.5675 3.35 6.375 2.5 C9 0 9 0 11 0 C11 4.29 11 8.58 11 13 C10.34 13 9.68 13 9 13 C8.67 10.69 8.34 8.38 8 6 C6.02 6.99 6.02 6.99 4 8 C3.67 7.34 3.34 6.68 3 6 C2.67 8.31 2.34 10.62 2 13 C1.34 13 0.68 13 0 13 C0 8.71 0 4.42 0 0 Z " fill="#939192" transform="translate(180,17)"/>
<path d="M0 0 C3.4375 0.0625 3.4375 0.0625 7 1 C9.0625 3.25 9.0625 3.25 10 6 C9.10394232 9.85304802 8.34846101 10.76769266 5 13 C2 12.9375 2 12.9375 -1 12 C-3 9.75 -3 9.75 -4 7 C-3.18795587 3.82564566 -2.31819425 2.31819425 0 0 Z M1 2 C-1.2491908 3.82703227 -1.2491908 3.82703227 -1.25 6.5 C-1.2491908 9.17296773 -1.2491908 9.17296773 1 11 C4.30683466 10.71016731 4.30683466 10.71016731 7 9 C7.2500773 6.54190002 7.2500773 6.54190002 7 4 C6.34 3.34 5.68 2.68 5 2 C3.68 2 2.36 2 1 2 Z " fill="#858384" transform="translate(225,17)"/>
<path d="M0 0 C3.4375 0.8125 3.4375 0.8125 5.4375 3.8125 C5.25 7.375 5.25 7.375 4.4375 10.8125 C1.4375 12.8125 1.4375 12.8125 -1.5625 12.625 C-4.5625 11.8125 -4.5625 11.8125 -6.5 10.6875 C-8.25896638 7.58344169 -7.41186588 5.14929452 -6.5625 1.8125 C-3.5625 -0.1875 -3.5625 -0.1875 0 0 Z M-4.4375 2.9375 C-5.83659643 4.83717776 -5.83659643 4.83717776 -5.25 7.5 C-5.023125 8.263125 -4.79625 9.02625 -4.5625 9.8125 C-2.21716049 10.58206136 -2.21716049 10.58206136 0.4375 10.8125 C2.4375 9.8125 2.4375 9.8125 3.4375 7.8125 C3.20706136 5.15783951 3.20706136 5.15783951 2.4375 2.8125 C-1.11216644 1.67809731 -1.11216644 1.67809731 -4.4375 2.9375 Z " fill="#878485" transform="translate(160.5625,17.1875)"/>
<path d="M0 0 C1.670625 0.061875 1.670625 0.061875 3.375 0.125 C2.375 2.125 2.375 2.125 -0.6875 3.25 C-2.1415625 3.683125 -2.1415625 3.683125 -3.625 4.125 C-3.295 5.775 -2.965 7.425 -2.625 9.125 C-1.635 9.455 -0.645 9.785 0.375 10.125 C1.695 8.805 3.015 7.485 4.375 6.125 C3.055 6.125 1.735 6.125 0.375 6.125 C0.375 5.465 0.375 4.805 0.375 4.125 C2.355 4.125 4.335 4.125 6.375 4.125 C5.625 9.875 5.625 9.875 3.375 12.125 C-2.60216895 12.668379 -2.60216895 12.668379 -5.625 11.0625 C-7.24147822 7.93057344 -6.41165296 5.45314714 -5.625 2.125 C-3.625 0.125 -3.625 0.125 0 0 Z " fill="#878585" transform="translate(231.625,34.875)"/>
<path d="M0 0 C5.875 4.75 5.875 4.75 7 7 C7.33 4.69 7.66 2.38 8 0 C8.66 0 9.32 0 10 0 C10 4.29 10 8.58 10 13 C5 9 5 9 3 6 C2.67 8.31 2.34 10.62 2 13 C1.34 13 0.68 13 0 13 C0 8.71 0 4.42 0 0 Z " fill="#969595" transform="translate(237,17)"/>
<path d="M0 0 C0 0.66 0 1.32 0 2 C-1.98 2.66 -3.96 3.32 -6 4 C-6 5.65 -6 7.3 -6 9 C-3.58380177 9.25030977 -3.58380177 9.25030977 -1 9 C-0.34 8.01 0.32 7.02 1 6 C-0.32 6 -1.64 6 -3 6 C-3 5.34 -3 4.68 -3 4 C-1.02 4 0.96 4 3 4 C3.22223194 6.74086056 3.34781139 8.43963721 1.875 10.8125 C-0.87155972 12.55198782 -2.81846974 12.39769128 -6 12 C-7.875 10.875 -7.875 10.875 -9 9 C-9.39365568 5.85075452 -9.52854531 3.88090884 -7.875 1.125 C-5.21965017 -0.4682099 -3.03210482 -0.20214032 0 0 Z " fill="#878586" transform="translate(153,53)"/>
<path d="M0 0 C2.33333333 2.33333333 4.66666667 4.66666667 7 7 C7.33 4.69 7.66 2.38 8 0 C8.66 0 9.32 0 10 0 C10 3.96 10 7.92 10 12 C6.23312136 10.11656068 5.20578354 9.30867531 3 6 C2.67 8.31 2.34 10.62 2 13 C1.34 13 0.68 13 0 13 C0 8.71 0 4.42 0 0 Z " fill="#8B8989" transform="translate(132,17)"/>
<path d="M0 0 C2 2.1875 2 2.1875 3 5 C2.76271993 8.4010144 2.430466 9.569534 0 12 C-6.05240175 12.55021834 -6.05240175 12.55021834 -8.9375 10.875 C-10.50422245 8.11019567 -10.38976435 6.11811483 -10 3 C-7.72623967 -1.01251823 -4.20314565 -0.60044938 0 0 Z M-8 4 C-8.16687448 6.58354218 -8.16687448 6.58354218 -8 9 C-5.73398135 10.29042763 -5.73398135 10.29042763 -3 11 C-0.67488528 9.73647948 -0.67488528 9.73647948 1 8 C0.62095792 4.70924004 0.62095792 4.70924004 -1 2 C-4.961168 1.60909667 -4.961168 1.60909667 -8 4 Z " fill="#8E8C8D" transform="translate(220,35)"/>
<path d="M0 0 C2.31 0.33 4.62 0.66 7 1 C7.7412036 3.30596675 8.10276212 4.63462359 7.4375 7 C6.86333986 9.62473206 7.63831556 10.75722562 9 13 C6.11562221 11.70700306 4.12780579 10.34058637 2 8 C2 9.65 2 11.3 2 13 C1.34 13 0.68 13 0 13 C0 8.71 0 4.42 0 0 Z M2 2 C2 3.32 2 4.64 2 6 C2.99 6 3.98 6 5 6 C5 4.68 5 3.36 5 2 C4.01 2 3.02 2 2 2 Z " fill="#817F7F" transform="translate(169,17)"/>
<path d="M0 0 C0.66 0 1.32 0 2 0 C3.7143618 1.95927063 5.38405168 3.95880212 7 6 C7.33 4.02 7.66 2.04 8 0 C8.66 0 9.32 0 10 0 C10 3.96 10 7.92 10 12 C9.34 12 8.68 12 8 12 C6.2856382 10.04072937 4.61594832 8.04119788 3 6 C2.67 7.98 2.34 9.96 2 12 C1.34 12 0.68 12 0 12 C0 8.04 0 4.08 0 0 Z " fill="#817E7F" transform="translate(173,35)"/>
<path d="M0 0 C1.875 1.125 1.875 1.125 3 3 C3.38976435 6.11811483 3.50422245 8.11019567 1.9375 10.875 C-1.17606796 12.68287817 -3.49310205 12.50098542 -7 12 C-9.0625 9.875 -9.0625 9.875 -10 7 C-9.3125 3.75 -9.3125 3.75 -8 1 C-5.20129973 -0.39935013 -3.09501208 -0.25265405 0 0 Z M-6 2 C-6.66 3.65 -7.32 5.3 -8 7 C-6.68 8.32 -5.36 9.64 -4 11 C-2.35 10.34 -0.7 9.68 1 9 C1.04254356 7.00045254 1.04080783 4.99958364 1 3 C-0.12534105 1.64381501 -0.12534105 1.64381501 -3.0625 1.9375 C-4.031875 1.958125 -5.00125 1.97875 -6 2 Z " fill="#777475" transform="translate(195,35)"/>
<path d="M0 0 C2 3 2 3 1.8125 6.0625 C1 9 1 9 -2 11 C-4.83079592 11.35384949 -6.36830089 11.3920891 -8.8125 9.875 C-10.55198782 7.12844028 -10.39769128 5.18153026 -10 2 C-7.65569181 -2.27491494 -4.20074737 -1.06928115 0 0 Z M-8 2 C-8.16666667 5 -8.16666667 5 -8 8 C-6.94689723 9.27003323 -6.94689723 9.27003323 -4.5625 9.1875 C-1.83265325 9.26839983 -1.83265325 9.26839983 0 7 C-0.28983269 3.69316534 -0.28983269 3.69316534 -2 1 C-5.28894893 0.59371033 -5.28894893 0.59371033 -8 2 Z " fill="#878586" transform="translate(235,54)"/>
<path d="M0 0 C0.66 0 1.32 0 2 0 C2 1.32 2 2.64 2 4 C3.98 4 5.96 4 8 4 C8 2.68 8 1.36 8 0 C8.66 0 9.32 0 10 0 C10 3.96 10 7.92 10 12 C9.34 12 8.68 12 8 12 C8 10.02 8 8.04 8 6 C6.02 6 4.04 6 2 6 C2 7.98 2 9.96 2 12 C1.34 12 0.68 12 0 12 C0 8.04 0 4.08 0 0 Z " fill="#7F7D7E" transform="translate(160,35)"/>
<path d="M0 0 C2 3 2 3 1.8125 6.0625 C1 9 1 9 -2 11 C-4.83079592 11.35384949 -6.36830089 11.3920891 -8.8125 9.875 C-10.55198782 7.12844028 -10.39769128 5.18153026 -10 2 C-7.65569181 -2.27491494 -4.20074737 -1.06928115 0 0 Z M-7 1 C-8.19838209 3.32854463 -8.19838209 3.32854463 -9 6 C-8.01 7.485 -8.01 7.485 -7 9 C-4.5 9.41666667 -4.5 9.41666667 -2 9 C-1.34 8.34 -0.68 7.68 0 7 C-0.28983269 3.69316534 -0.28983269 3.69316534 -2 1 C-3.66617115 0.95936168 -5.33388095 0.957279 -7 1 Z " fill="#747172" transform="translate(221,54)"/>
<path d="M0 0 C0.99 0.495 0.99 0.495 2 1 C2 1.99 2 2.98 2 4 C3.65 4 5.3 4 7 4 C7 2.68 7 1.36 7 0 C7.66 0 8.32 0 9 0 C9 3.96 9 7.92 9 12 C8.34 12 7.68 12 7 12 C7 10.02 7 8.04 7 6 C5.35 6.33 3.7 6.66 2 7 C1.67 8.65 1.34 10.3 1 12 C0.67 12 0.34 12 0 12 C0 8.04 0 4.08 0 0 Z " fill="#898788" transform="translate(158,53)"/>
<path d="M0 0 C6.04637557 -0.53985496 12.19593239 0.16713655 18 2 C18.33 2.66 18.66 3.32 19 4 C16.62492145 4.02719556 14.25016036 4.04693247 11.875 4.0625 C10.87726562 4.07506836 10.87726562 4.07506836 9.859375 4.08789062 C5.79318646 4.10782292 1.9879908 3.78890161 -2 3 C-1.34 2.01 -0.68 1.02 0 0 Z " fill="#ED1F2B" transform="translate(39,30)"/>
<path d="M0 0 C0.94875 0.04125 1.8975 0.0825 2.875 0.125 C2.875 0.785 2.875 1.445 2.875 2.125 C1.225 2.455 -0.425 2.785 -2.125 3.125 C-1.50625 3.41375 -0.8875 3.7025 -0.25 4 C1.875 5.125 1.875 5.125 3.875 7.125 C3.33928571 10.66071429 3.33928571 10.66071429 1.875 12.125 C-0.12458364 12.16580783 -2.12545254 12.16754356 -4.125 12.125 C-4.125 11.465 -4.125 10.805 -4.125 10.125 C-2.145 10.125 -0.165 10.125 1.875 10.125 C1.02933261 7.85326908 1.02933261 7.85326908 -1.625 7.25 C-4.125 6.125 -4.125 6.125 -5.0625 4.125 C-5.083125 3.465 -5.10375 2.805 -5.125 2.125 C-3.125 0.125 -3.125 0.125 0 0 Z " fill="#8A8888" transform="translate(181.125,52.875)"/>
<path d="M0 0 C3.42931954 3.7559214 4.56429083 8.23466745 6 13 C5.01 12.67 4.02 12.34 3 12 C2.3125 9.9375 2.3125 9.9375 2 8 C-1.11332248 8.66868314 -1.11332248 8.66868314 -2.1875 11.0625 C-2.455625 11.701875 -2.72375 12.34125 -3 13 C-3.66 13 -4.32 13 -5 13 C-4.54803755 11.39402675 -4.08817673 9.79027492 -3.625 8.1875 C-3.36976563 7.29417969 -3.11453125 6.40085937 -2.8515625 5.48046875 C-2 3 -2 3 0 0 Z M0 4 C1 6 1 6 1 6 Z " fill="#888687" transform="translate(198,17)"/>
<path d="M0 0 C0.66 0 1.32 0 2 0 C2 1.32 2 2.64 2 4 C3.98 4 5.96 4 8 4 C8.33 2.68 8.66 1.36 9 0 C10.16063604 4.25566547 9.76173392 7.6835078 9 12 C8.67 12 8.34 12 8 12 C8 10.02 8 8.04 8 6 C6.02 6 4.04 6 2 6 C2 7.98 2 9.96 2 12 C1.34 12 0.68 12 0 12 C0 8.04 0 4.08 0 0 Z " fill="#848282" transform="translate(128,53)"/>
<path d="M0 0 C0 0.99 0 1.98 0 3 C-0.969375 2.979375 -1.93875 2.95875 -2.9375 2.9375 C-5.87465895 2.64381501 -5.87465895 2.64381501 -7 4 C-7.04063832 5.66617115 -7.042721 7.33388095 -7 9 C-3.94736336 9.98120464 -2.05263664 9.98120464 1 9 C0.67 9.99 0.34 10.98 0 12 C-6.3782235 12.36103152 -6.3782235 12.36103152 -8.9375 10.875 C-10.50422245 8.11019567 -10.38976435 6.11811483 -10 3 C-7.7109263 -1.03954182 -4.21983723 -0.23885871 0 0 Z " fill="#918F8F" transform="translate(157,35)"/>
<path d="M0 0 C1.134375 0.020625 2.26875 0.04125 3.4375 0.0625 C3.4375 0.7225 3.4375 1.3825 3.4375 2.0625 C1.4575 2.0625 -0.5225 2.0625 -2.5625 2.0625 C-2.5625 2.7225 -2.5625 3.3825 -2.5625 4.0625 C-0.9125 4.0625 0.7375 4.0625 2.4375 4.0625 C2.4375 4.7225 2.4375 5.3825 2.4375 6.0625 C1.1175 6.0625 -0.2025 6.0625 -1.5625 6.0625 C-1.5625 8.0425 -1.5625 10.0225 -1.5625 12.0625 C-2.5525 12.0625 -3.5425 12.0625 -4.5625 12.0625 C-4.58937279 10.25007948 -4.60883715 8.43754767 -4.625 6.625 C-4.63660156 5.61566406 -4.64820313 4.60632813 -4.66015625 3.56640625 C-4.50618986 -0.38129207 -4.09874205 0.07190776 0 0 Z " fill="#9C9A9B" transform="translate(148.5625,16.9375)"/>
<path d="M0 0 C0.66 0 1.32 0 2 0 C2 1.32 2 2.64 2 4 C3.98 4 5.96 4 8 4 C8.33 2.68 8.66 1.36 9 0 C10.53166168 4.08443115 9.63081652 7.79455657 9 12 C8.67 12 8.34 12 8 12 C8 10.02 8 8.04 8 6 C6.02 6 4.04 6 2 6 C2 7.98 2 9.96 2 12 C1.34 12 0.68 12 0 12 C0 8.04 0 4.08 0 0 Z " fill="#7E7C7C" transform="translate(199,53)"/>
<path d="M0 0 C1.0725 0.268125 2.145 0.53625 3.25 0.8125 C1.25 2.8125 1.25 2.8125 -1.375 2.9375 C-2.15875 2.89625 -2.9425 2.855 -3.75 2.8125 C-4.76111093 5.86163228 -4.76111093 5.86163228 -3.75 8.8125 C-1.44 8.8125 0.87 8.8125 3.25 8.8125 C3.25 9.4725 3.25 10.1325 3.25 10.8125 C-3.21148093 12.15356208 -3.21148093 12.15356208 -5.625 10.625 C-7.67624357 7.3202187 -7.67624357 7.3202187 -7.75 4.8125 C-5.54519476 0.67849017 -4.79074997 -0.2395375 0 0 Z " fill="#868485" transform="translate(193.75,53.1875)"/>
<path d="M0 0 C2.31 0 4.62 0 7 0 C7 0.66 7 1.32 7 2 C5.02 2 3.04 2 1 2 C1 2.66 1 3.32 1 4 C2.32 4 3.64 4 5 4 C5 4.66 5 5.32 5 6 C3.68 6 2.36 6 1 6 C1.33 6.99 1.66 7.98 2 9 C5.00847418 10.22520264 5.00847418 10.22520264 8 11 C8 11.33 8 11.66 8 12 C5.36 12 2.72 12 0 12 C0 8.04 0 4.08 0 0 Z " fill="#7A7878" transform="translate(138,35)"/>
<path d="M0 0 C3.63 0 7.26 0 11 0 C11 0.66 11 1.32 11 2 C9.68 2 8.36 2 7 2 C7 5.63 7 9.26 7 13 C6.34 13 5.68 13 5 13 C5 9.37 5 5.74 5 2 C3.35 2 1.7 2 0 2 C0 1.34 0 0.68 0 0 Z " fill="#8E8C8C" transform="translate(204,17)"/>
<path d="M0 0 C3.63 0 7.26 0 11 0 C11 0.66 11 1.32 11 2 C9.35 2 7.7 2 6 2 C6 5.3 6 8.6 6 12 C5.34 12 4.68 12 4 12 C4 8.7 4 5.4 4 2 C2.68 2 1.36 2 0 2 C0 1.34 0 0.68 0 0 Z " fill="#888686" transform="translate(125,35)"/>
<path d="M0 0 C0.66 0 1.32 0 2 0 C3.625 2 3.625 2 5 4 C5.45375 3.34 5.9075 2.68 6.375 2 C6.91125 1.34 7.4475 0.68 8 0 C8.66 0 9.32 0 10 0 C9.566875 1.0209375 9.566875 1.0209375 9.125 2.0625 C7.87402645 5.32893093 6.92552045 8.62846123 6 12 C5.34 12 4.68 12 4 12 C3.566875 10.4221875 3.566875 10.4221875 3.125 8.8125 C2.22774807 5.77181289 1.23576581 2.91287656 0 0 Z " fill="#838182" transform="translate(239,35)"/>
<path d="M0 0 C0.66 0 1.32 0 2 0 C2 3.3 2 6.6 2 10 C3.98 10 5.96 10 8 10 C8 10.66 8 11.32 8 12 C5.36 12 2.72 12 0 12 C0 8.04 0 4.08 0 0 Z " fill="#908E8F" transform="translate(239,53)"/>
<path d="M0 0 C0.66 0 1.32 0 2 0 C2.33 3.3 2.66 6.6 3 10 C4.65 10 6.3 10 8 10 C8.33 10.66 8.66 11.32 9 12 C6.03 12 3.06 12 0 12 C0 8.04 0 4.08 0 0 Z " fill="#8D8B8C" transform="translate(201,35)"/>
<path d="M0 0 C1.98 0 3.96 0 6 0 C5.25 5.75 5.25 5.75 3 8 C-0.125 8.125 -0.125 8.125 -3 8 C-2.01 7.34 -1.02 6.68 0 6 C1.35251497 4.68612831 2.68945377 3.35573748 4 2 C2.68 2 1.36 2 0 2 C0 1.34 0 0.68 0 0 Z " fill="#848283" transform="translate(232,39)"/>
<path d="M0 0 C2.41848643 3.62772965 3.10864479 6.65420856 3 11 C1.5625 13 1.5625 13 0 14 C-1.98 10.535 -1.98 10.535 -4 7 C-3.01 7 -2.02 7 -1 7 C-0.67 7.66 -0.34 8.32 0 9 C0 6.03 0 3.06 0 0 Z " fill="#EFAAAE" transform="translate(82,42)"/>
<path d="M0 0 C0.66 0 1.32 0 2 0 C1.67 2.64 1.34 5.28 1 8 C2.98 8.66 4.96 9.32 7 10 C7 10.33 7 10.66 7 11 C1.6 11.36 1.6 11.36 -0.875 9.875 C-2.50531294 7.15781176 -2.33015665 5.10347254 -2 2 C-1.34 1.34 -0.68 0.68 0 0 Z " fill="#777575" transform="translate(212,36)"/>
<path d="M0 0 C3 0.25 3 0.25 5 2.25 C4.34 2.25 3.68 2.25 3 2.25 C3 2.91 3 3.57 3 4.25 C0.69 4.25 -1.62 4.25 -4 4.25 C-4.33 3.59 -4.66 2.93 -5 2.25 C-3 0.25 -3 0.25 0 0 Z " fill="#EE222E" transform="translate(33,27.75)"/>
<path d="M0 0 C3.3125 0.1875 3.3125 0.1875 7 1 C9.0625 3.3125 9.0625 3.3125 10 6 C9.1875 8.3125 9.1875 8.3125 8 10 C7.4121875 8.329375 7.4121875 8.329375 6.8125 6.625 C5.57517033 3.68039334 5.26393503 3.14117455 2.3125 1.5625 C1.1678125 1.2840625 1.1678125 1.2840625 0 1 C0 0.67 0 0.34 0 0 Z " fill="#939191" transform="translate(225,17)"/>
<path d="M0 0 C0.33 1.32 0.66 2.64 1 4 C1.99 4 2.98 4 4 4 C4.33 3.01 4.66 2.02 5 1 C5.309375 2.093125 5.61875 3.18625 5.9375 4.3125 C6.58337897 6.55407994 7.2623117 8.7869351 8 11 C6.0625 10.1875 6.0625 10.1875 4 9 C3.67 8.01 3.34 7.02 3 6 C2.01 5.67 1.02 5.34 0 5 C0 3.35 0 1.7 0 0 Z " fill="#A6A4A5" transform="translate(170,19)"/>
<path d="M0 0 C0.66 0 1.32 0 2 0 C2 4.29 2 8.58 2 13 C1.34 13 0.68 13 0 13 C0 8.71 0 4.42 0 0 Z " fill="#949292" transform="translate(217,17)"/>
<path d="M0 0 C0 0.99 0 1.98 0 3 C-2.31 2.67 -4.62 2.34 -7 2 C-7.66 3.65 -8.32 5.3 -9 7 C-9.33 7 -9.66 7 -10 7 C-10.22111261 4.27294446 -10.30361625 2.53579338 -8.9375 0.125 C-5.88430685 -1.64782183 -3.33588292 -0.69235306 0 0 Z " fill="#787576" transform="translate(235,54)"/>
<path d="M0 0 C0.66 0 1.32 0 2 0 C2 3.96 2 7.92 2 12 C1.01 12.495 1.01 12.495 0 13 C0 8.71 0 4.42 0 0 Z " fill="#969494" transform="translate(127,17)"/>
<path d="M0 0 C0.66 0.66 1.32 1.32 2 2 C1.2575 2.12375 0.515 2.2475 -0.25 2.375 C-2.97537272 2.86889456 -2.97537272 2.86889456 -5.125 4.125 C-7 5 -7 5 -10 4 C-10 3.34 -10 2.68 -10 2 C-8.37828761 1.61102839 -6.75245075 1.23921702 -5.125 0.875 C-4.22007813 0.66617187 -3.31515625 0.45734375 -2.3828125 0.2421875 C-1.20332031 0.12230469 -1.20332031 0.12230469 0 0 Z " fill="#656363" transform="translate(77,26)"/>
<path d="M0 0 C0.33 0 0.66 0 1 0 C0.938125 0.9075 0.87625 1.815 0.8125 2.75 C1.01672076 6.28982642 1.64551835 7.44931155 4 10 C2.68 10 1.36 10 0 10 C-2.21538462 4.58461538 -2.21538462 4.58461538 -1.125 1.625 C-0.75375 1.08875 -0.3825 0.5525 0 0 Z " fill="#8F8D8D" transform="translate(187,36)"/>
<path d="M0 0 C0.66 0 1.32 0 2 0 C3.7143618 1.95927063 5.38405168 3.95880212 7 6 C6.01 6 5.02 6 4 6 C3.67 6.66 3.34 7.32 3 8 C0 2.25 0 2.25 0 0 Z " fill="#817F7F" transform="translate(12,1)"/>
<path d="M0 0 C2.99324263 1.0975223 3.84610901 1.67682892 5.25 4.625 C5.4975 5.40875 5.745 6.1925 6 7 C6.66 7 7.32 7 8 7 C8 7.66 8 8.32 8 9 C5.00675737 7.9024777 4.15389099 7.32317108 2.75 4.375 C2.5025 3.59125 2.255 2.8075 2 2 C1.34 2 0.68 2 0 2 C0 1.34 0 0.68 0 0 Z " fill="#797777" transform="translate(238,19)"/>
<path d="M0 0 C0.99 0.495 0.99 0.495 2 1 C2.25 8.625 2.25 8.625 0 12 C0 8.04 0 4.08 0 0 Z " fill="#8E8C8C" transform="translate(140,53)"/>
<path d="M0 0 C0.9075 0.350625 1.815 0.70125 2.75 1.0625 C5.87758436 1.96468779 7.05208081 2.13381507 10 1 C9.67 1.99 9.34 2.98 9 4 C6.69 4 4.38 4 2 4 C1.34 2.68 0.68 1.36 0 0 Z " fill="#858383" transform="translate(148,43)"/>
<path d="M0 0 C2.31 0.33 4.62 0.66 7 1 C6.34 1.66 5.68 2.32 5 3 C5.33 3.99 5.66 4.98 6 6 C4.125 5.8125 4.125 5.8125 2 5 C0.75 2.4375 0.75 2.4375 0 0 Z " fill="#F8A4A8" transform="translate(14,22)"/>
<path d="M0 0 C4.875 1.75 4.875 1.75 6 4 C5.01 4 4.02 4 3 4 C2.67 4.99 2.34 5.98 2 7 C0.5393715 4.35261084 0 3.10551666 0 0 Z " fill="#F68C92" transform="translate(7,7)"/>
<path d="M0 0 C2.475 0.495 2.475 0.495 5 1 C5 1.99 5 2.98 5 4 C3.35 3.67 1.7 3.34 0 3 C0 2.01 0 1.02 0 0 Z " fill="#423E3F" transform="translate(16,7)"/>
<path d="M0 0 C2.31 0 4.62 0 7 0 C7 0.66 7 1.32 7 2 C5.02 2.99 5.02 2.99 3 4 C2.01 3.34 1.02 2.68 0 2 C0 1.34 0 0.68 0 0 Z " fill="#F68A90" transform="translate(28,34)"/>
<path d="M0 0 C2.97 0.495 2.97 0.495 6 1 C6.33 2.32 6.66 3.64 7 5 C4.525 4.01 4.525 4.01 2 3 C2 2.34 2 1.68 2 1 C1.34 0.67 0.68 0.34 0 0 Z " fill="#ED1B28" transform="translate(17,24)"/>
<path d="M0 0 C1.32 1.32 2.64 2.64 4 4 C3.01 4 2.02 4 1 4 C1 6.64 1 9.28 1 12 C0.67 12 0.34 12 0 12 C0 8.04 0 4.08 0 0 Z " fill="#666464" transform="translate(180,17)"/>
<path d="M0 0 C1.65 0.99 3.3 1.98 5 3 C3.3125 4.125 3.3125 4.125 1 5 C-1.75 4.125 -1.75 4.125 -4 3 C-2.68 2.01 -1.36 1.02 0 0 Z " fill="#696768" transform="translate(22,9)"/>
<path d="M0 0 C0.75 1.75 0.75 1.75 1 4 C-0.9375 6.25 -0.9375 6.25 -3 8 C-4.32 7.34 -5.64 6.68 -7 6 C-6.21625 5.7525 -5.4325 5.505 -4.625 5.25 C-1.67682892 3.84610901 -1.0975223 2.99324263 0 0 Z " fill="#949393" transform="translate(222,57)"/>
<path d="M0 0 C1.4540625 0.0309375 1.4540625 0.0309375 2.9375 0.0625 C2.9375 0.7225 2.9375 1.3825 2.9375 2.0625 C0.6275 2.7225 -1.6825 3.3825 -4.0625 4.0625 C-4.0625 0.08290816 -4.0625 0.08290816 0 0 Z " fill="#929091" transform="translate(150.0625,52.9375)"/>
<path d="M0 0 C0.61875 0.78375 1.2375 1.5675 1.875 2.375 C3.89858661 4.96837647 3.89858661 4.96837647 6 7 C5.01 7.33 4.02 7.66 3 8 C1.5 6.8125 1.5 6.8125 0 5 C-0.1875 2.3125 -0.1875 2.3125 0 0 Z " fill="#918F8F" transform="translate(225,39)"/>
<path d="M0 0 C2.31 0.66 4.62 1.32 7 2 C4 4 4 4 2 4 C2 3.34 2 2.68 2 2 C0.68 2.33 -0.64 2.66 -2 3 C-1.34 2.01 -0.68 1.02 0 0 Z " fill="#CBBBBC" transform="translate(47,22)"/>
<path d="M0 0 C0.33 0 0.66 0 1 0 C0.74438677 2.3431213 0.40729228 4.67843403 0 7 C-0.99 7.495 -0.99 7.495 -2 8 C-2.66 7.34 -3.32 6.68 -4 6 C-3.34 6 -2.68 6 -2 6 C-1.34 4.02 -0.68 2.04 0 0 Z " fill="#9A9899" transform="translate(165,21)"/>
</svg>
